<svg xmlns="http://www.w3.org/2000/svg" width="1600" height="600" viewBox="0 0 1600 600" role="img" aria-label="Abstract top-down navigation maze representing decision-making">
<defs>
<linearGradient id="bg" x1="0" y1="0" x2="1" y2="1"><stop offset="0" stop-color="#f4f0f8"></stop><stop offset="1" stop-color="#e7def0"></stop></linearGradient>
<linearGradient id="route" x1="0" y1="0" x2="1" y2="0"><stop offset="0" stop-color="#500778"></stop><stop offset="1" stop-color="#7d2aa6"></stop></linearGradient>
<linearGradient id="safe" x1="0" y1="0" x2="1" y2="0"><stop offset="0" stop-color="#f4f0f8" stop-opacity="0.95"></stop><stop offset="0.55" stop-color="#f4f0f8" stop-opacity="0.55"></stop><stop offset="1" stop-color="#f4f0f8" stop-opacity="0"></stop></linearGradient>
<radialGradient id="glow" cx="0.5" cy="0.5" r="0.5"><stop offset="0" stop-color="#9b1f8f" stop-opacity="0.32"></stop><stop offset="1" stop-color="#9b1f8f" stop-opacity="0"></stop></radialGradient>
</defs>
<rect width="1600" height="600" fill="url(#bg)"></rect>
<g><circle cx="64" cy="52" r="1.4" fill="#4b2a6b" opacity="0.050"></circle><circle cx="64" cy="108" r="1.4" fill="#4b2a6b" opacity="0.050"></circle><circle cx="64" cy="164" r="1.4" fill="#4b2a6b" opacity="0.050"></circle><circle cx="64" cy="220" r="1.4" fill="#4b2a6b" opacity="0.050"></circle><circle cx="64" cy="276" r="1.4" fill="#4b2a6b" opacity="0.050"></circle><circle cx="64" cy="332" r="1.4" fill="#4b2a6b" opacity="0.050"></circle><circle cx="64" cy="388" r="1.4" fill="#4b2a6b" opacity="0.050"></circle><circle cx="64" cy="444" r="1.4" fill="#4b2a6b" opacity="0.050"></circle><circle cx="64" cy="500" r="1.4" fill="#4b2a6b" opacity="0.050"></circle><circle cx="120" cy="52" r="1.4" fill="#4b2a6b" opacity="0.050"></circle><circle cx="120" cy="108" r="1.4" fill="#4b2a6b" opacity="0.050"></circle><circle cx="120" cy="164" r="1.4" fill="#4b2a6b" opacity="0.050"></circle><circle cx="120" cy="220" r="1.4" fill="#4b2a6b" opacity="0.050"></circle><circle cx="120" cy="276" r="1.4" fill="#4b2a6b" opacity="0.050"></circle><circle cx="120" cy="332" r="1.4" fill="#4b2a6b" opacity="0.050"></circle><circle cx="120" cy="388" r="1.4" fill="#4b2a6b" opacity="0.050"></circle><circle cx="120" cy="444" r="1.4" fill="#4b2a6b" opacity="0.050"></circle><circle cx="120" cy="500" r="1.4" fill="#4b2a6b" opacity="0.050"></circle><circle cx="176" cy="52" r="1.4" fill="#4b2a6b" opacity="0.050"></circle><circle cx="176" cy="108" r="1.4" fill="#4b2a6b" opacity="0.050"></circle><circle cx="176" cy="164" r="1.4" fill="#4b2a6b" opacity="0.050"></circle><circle cx="176" cy="220" r="1.4" fill="#4b2a6b" opacity="0.050"></circle><circle cx="176" cy="276" r="1.4" fill="#4b2a6b" opacity="0.050"></circle><circle cx="176" cy="332" r="1.4" fill="#4b2a6b" opacity="0.050"></circle><circle cx="176" cy="388" r="1.4" fill="#4b2a6b" opacity="0.050"></circle><circle cx="176" cy="444" r="1.4" fill="#4b2a6b" opacity="0.050"></circle><circle cx="176" cy="500" r="1.4" fill="#4b2a6b" opacity="0.050"></circle><circle cx="232" cy="52" r="1.4" fill="#4b2a6b" opacity="0.050"></circle><circle cx="232" cy="108" r="1.4" fill="#4b2a6b" opacity="0.050"></circle><circle cx="232" cy="164" r="1.4" fill="#4b2a6b" opacity="0.050"></circle><circle cx="232" cy="220" r="1.4" fill="#4b2a6b" opacity="0.050"></circle><circle cx="232" cy="276" r="1.4" fill="#4b2a6b" opacity="0.050"></circle><circle cx="232" cy="332" r="1.4" fill="#4b2a6b" opacity="0.050"></circle><circle cx="232" cy="388" r="1.4" fill="#4b2a6b" opacity="0.050"></circle><circle cx="232" cy="444" r="1.4" fill="#4b2a6b" opacity="0.050"></circle><circle cx="232" cy="500" r="1.4" fill="#4b2a6b" opacity="0.050"></circle><circle cx="288" cy="52" r="1.4" fill="#4b2a6b" opacity="0.050"></circle><circle cx="288" cy="108" r="1.4" fill="#4b2a6b" opacity="0.050"></circle><circle cx="288" cy="164" r="1.4" fill="#4b2a6b" opacity="0.050"></circle><circle cx="288" cy="220" r="1.4" fill="#4b2a6b" opacity="0.050"></circle><circle cx="288" cy="276" r="1.4" fill="#4b2a6b" opacity="0.050"></circle><circle cx="288" cy="332" r="1.4" fill="#4b2a6b" opacity="0.050"></circle><circle cx="288" cy="388" r="1.4" fill="#4b2a6b" opacity="0.050"></circle><circle cx="288" cy="444" r="1.4" fill="#4b2a6b" opacity="0.050"></circle><circle cx="288" cy="500" r="1.4" fill="#4b2a6b" opacity="0.050"></circle><circle cx="344" cy="52" r="1.4" fill="#4b2a6b" opacity="0.100"></circle><circle cx="344" cy="108" r="1.4" fill="#4b2a6b" opacity="0.100"></circle><circle cx="344" cy="164" r="1.4" fill="#4b2a6b" opacity="0.100"></circle><circle cx="344" cy="220" r="1.4" fill="#4b2a6b" opacity="0.100"></circle><circle cx="344" cy="276" r="1.4" fill="#4b2a6b" opacity="0.100"></circle><circle cx="344" cy="332" r="1.4" fill="#4b2a6b" opacity="0.100"></circle><circle cx="344" cy="388" r="1.4" fill="#4b2a6b" opacity="0.100"></circle><circle cx="344" cy="444" r="1.4" fill="#4b2a6b" opacity="0.100"></circle><circle cx="344" cy="500" r="1.4" fill="#4b2a6b" opacity="0.100"></circle><circle cx="400" cy="52" r="1.4" fill="#4b2a6b" opacity="0.100"></circle><circle cx="400" cy="108" r="1.4" fill="#4b2a6b" opacity="0.100"></circle><circle cx="400" cy="164" r="1.4" fill="#4b2a6b" opacity="0.100"></circle><circle cx="400" cy="220" r="1.4" fill="#4b2a6b" opacity="0.100"></circle><circle cx="400" cy="276" r="1.4" fill="#4b2a6b" opacity="0.100"></circle><circle cx="400" cy="332" r="1.4" fill="#4b2a6b" opacity="0.100"></circle><circle cx="400" cy="388" r="1.4" fill="#4b2a6b" opacity="0.100"></circle><circle cx="400" cy="444" r="1.4" fill="#4b2a6b" opacity="0.100"></circle><circle cx="400" cy="500" r="1.4" fill="#4b2a6b" opacity="0.100"></circle><circle cx="456" cy="52" r="1.4" fill="#4b2a6b" opacity="0.100"></circle><circle cx="456" cy="108" r="1.4" fill="#4b2a6b" opacity="0.100"></circle><circle cx="456" cy="164" r="1.4" fill="#4b2a6b" opacity="0.100"></circle><circle cx="456" cy="220" r="1.4" fill="#4b2a6b" opacity="0.100"></circle><circle cx="456" cy="276" r="1.4" fill="#4b2a6b" opacity="0.100"></circle><circle cx="456" cy="332" r="1.4" fill="#4b2a6b" opacity="0.100"></circle><circle cx="456" cy="388" r="1.4" fill="#4b2a6b" opacity="0.100"></circle><circle cx="456" cy="444" r="1.4" fill="#4b2a6b" opacity="0.100"></circle><circle cx="456" cy="500" r="1.4" fill="#4b2a6b" opacity="0.100"></circle><circle cx="512" cy="52" r="1.4" fill="#4b2a6b" opacity="0.100"></circle><circle cx="512" cy="108" r="1.4" fill="#4b2a6b" opacity="0.100"></circle><circle cx="512" cy="164" r="1.4" fill="#4b2a6b" opacity="0.100"></circle><circle cx="512" cy="220" r="1.4" fill="#4b2a6b" opacity="0.100"></circle><circle cx="512" cy="276" r="1.4" fill="#4b2a6b" opacity="0.100"></circle><circle cx="512" cy="332" r="1.4" fill="#4b2a6b" opacity="0.100"></circle><circle cx="512" cy="388" r="1.4" fill="#4b2a6b" opacity="0.100"></circle><circle cx="512" cy="444" r="1.4" fill="#4b2a6b" opacity="0.100"></circle><circle cx="512" cy="500" r="1.4" fill="#4b2a6b" opacity="0.100"></circle><circle cx="568" cy="52" r="1.4" fill="#4b2a6b" opacity="0.100"></circle><circle cx="568" cy="108" r="1.4" fill="#4b2a6b" opacity="0.100"></circle><circle cx="568" cy="164" r="1.4" fill="#4b2a6b" opacity="0.100"></circle><circle cx="568" cy="220" r="1.4" fill="#4b2a6b" opacity="0.100"></circle><circle cx="568" cy="276" r="1.4" fill="#4b2a6b" opacity="0.100"></circle><circle cx="568" cy="332" r="1.4" fill="#4b2a6b" opacity="0.100"></circle><circle cx="568" cy="388" r="1.4" fill="#4b2a6b" opacity="0.100"></circle><circle cx="568" cy="444" r="1.4" fill="#4b2a6b" opacity="0.100"></circle><circle cx="568" cy="500" r="1.4" fill="#4b2a6b" opacity="0.100"></circle><circle cx="624" cy="52" r="1.4" fill="#4b2a6b" opacity="0.100"></circle><circle cx="624" cy="108" r="1.4" fill="#4b2a6b" opacity="0.100"></circle><circle cx="624" cy="164" r="1.4" fill="#4b2a6b" opacity="0.100"></circle><circle cx="624" cy="220" r="1.4" fill="#4b2a6b" opacity="0.100"></circle><circle cx="624" cy="276" r="1.4" fill="#4b2a6b" opacity="0.100"></circle><circle cx="624" cy="332" r="1.4" fill="#4b2a6b" opacity="0.100"></circle><circle cx="624" cy="388" r="1.4" fill="#4b2a6b" opacity="0.100"></circle><circle cx="624" cy="444" r="1.4" fill="#4b2a6b" opacity="0.100"></circle><circle cx="624" cy="500" r="1.4" fill="#4b2a6b" opacity="0.100"></circle><circle cx="680" cy="52" r="1.4" fill="#4b2a6b" opacity="0.100"></circle><circle cx="680" cy="108" r="1.4" fill="#4b2a6b" opacity="0.100"></circle><circle cx="680" cy="164" r="1.4" fill="#4b2a6b" opacity="0.100"></circle><circle cx="680" cy="220" r="1.4" fill="#4b2a6b" opacity="0.100"></circle><circle cx="680" cy="276" r="1.4" fill="#4b2a6b" opacity="0.100"></circle><circle cx="680" cy="332" r="1.4" fill="#4b2a6b" opacity="0.100"></circle><circle cx="680" cy="388" r="1.4" fill="#4b2a6b" opacity="0.100"></circle><circle cx="680" cy="444" r="1.4" fill="#4b2a6b" opacity="0.100"></circle><circle cx="680" cy="500" r="1.4" fill="#4b2a6b" opacity="0.100"></circle><circle cx="736" cy="52" r="1.4" fill="#4b2a6b" opacity="0.100"></circle><circle cx="736" cy="108" r="1.4" fill="#4b2a6b" opacity="0.100"></circle><circle cx="736" cy="164" r="1.4" fill="#4b2a6b" opacity="0.100"></circle><circle cx="736" cy="220" r="1.4" fill="#4b2a6b" opacity="0.100"></circle><circle cx="736" cy="276" r="1.4" fill="#4b2a6b" opacity="0.100"></circle><circle cx="736" cy="332" r="1.4" fill="#4b2a6b" opacity="0.100"></circle><circle cx="736" cy="388" r="1.4" fill="#4b2a6b" opacity="0.100"></circle><circle cx="736" cy="444" r="1.4" fill="#4b2a6b" opacity="0.100"></circle><circle cx="736" cy="500" r="1.4" fill="#4b2a6b" opacity="0.100"></circle><circle cx="792" cy="52" r="1.4" fill="#4b2a6b" opacity="0.100"></circle><circle cx="792" cy="108" r="1.4" fill="#4b2a6b" opacity="0.100"></circle><circle cx="792" cy="164" r="1.4" fill="#4b2a6b" opacity="0.100"></circle><circle cx="792" cy="220" r="1.4" fill="#4b2a6b" opacity="0.100"></circle><circle cx="792" cy="276" r="1.4" fill="#4b2a6b" opacity="0.100"></circle><circle cx="792" cy="332" r="1.4" fill="#4b2a6b" opacity="0.100"></circle><circle cx="792" cy="388" r="1.4" fill="#4b2a6b" opacity="0.100"></circle><circle cx="792" cy="444" r="1.4" fill="#4b2a6b" opacity="0.100"></circle><circle cx="792" cy="500" r="1.4" fill="#4b2a6b" opacity="0.100"></circle><circle cx="848" cy="52" r="1.4" fill="#4b2a6b" opacity="0.100"></circle><circle cx="848" cy="108" r="1.4" fill="#4b2a6b" opacity="0.100"></circle><circle cx="848" cy="164" r="1.4" fill="#4b2a6b" opacity="0.100"></circle><circle cx="848" cy="220" r="1.4" fill="#4b2a6b" opacity="0.100"></circle><circle cx="848" cy="276" r="1.4" fill="#4b2a6b" opacity="0.100"></circle><circle cx="848" cy="332" r="1.4" fill="#4b2a6b" opacity="0.100"></circle><circle cx="848" cy="388" r="1.4" fill="#4b2a6b" opacity="0.100"></circle><circle cx="848" cy="444" r="1.4" fill="#4b2a6b" opacity="0.100"></circle><circle cx="848" cy="500" r="1.4" fill="#4b2a6b" opacity="0.100"></circle><circle cx="904" cy="52" r="1.4" fill="#4b2a6b" opacity="0.100"></circle><circle cx="904" cy="108" r="1.4" fill="#4b2a6b" opacity="0.100"></circle><circle cx="904" cy="164" r="1.4" fill="#4b2a6b" opacity="0.100"></circle><circle cx="904" cy="220" r="1.4" fill="#4b2a6b" opacity="0.100"></circle><circle cx="904" cy="276" r="1.4" fill="#4b2a6b" opacity="0.100"></circle><circle cx="904" cy="332" r="1.4" fill="#4b2a6b" opacity="0.100"></circle><circle cx="904" cy="388" r="1.4" fill="#4b2a6b" opacity="0.100"></circle><circle cx="904" cy="444" r="1.4" fill="#4b2a6b" opacity="0.100"></circle><circle cx="904" cy="500" r="1.4" fill="#4b2a6b" opacity="0.100"></circle><circle cx="960" cy="52" r="1.4" fill="#4b2a6b" opacity="0.100"></circle><circle cx="960" cy="108" r="1.4" fill="#4b2a6b" opacity="0.100"></circle><circle cx="960" cy="164" r="1.4" fill="#4b2a6b" opacity="0.100"></circle><circle cx="960" cy="220" r="1.4" fill="#4b2a6b" opacity="0.100"></circle><circle cx="960" cy="276" r="1.4" fill="#4b2a6b" opacity="0.100"></circle><circle cx="960" cy="332" r="1.4" fill="#4b2a6b" opacity="0.100"></circle><circle cx="960" cy="388" r="1.4" fill="#4b2a6b" opacity="0.100"></circle><circle cx="960" cy="444" r="1.4" fill="#4b2a6b" opacity="0.100"></circle><circle cx="960" cy="500" r="1.4" fill="#4b2a6b" opacity="0.100"></circle><circle cx="1016" cy="52" r="1.4" fill="#4b2a6b" opacity="0.100"></circle><circle cx="1016" cy="108" r="1.4" fill="#4b2a6b" opacity="0.100"></circle><circle cx="1016" cy="164" r="1.4" fill="#4b2a6b" opacity="0.100"></circle><circle cx="1016" cy="220" r="1.4" fill="#4b2a6b" opacity="0.100"></circle><circle cx="1016" cy="276" r="1.4" fill="#4b2a6b" opacity="0.100"></circle><circle cx="1016" cy="332" r="1.4" fill="#4b2a6b" opacity="0.100"></circle><circle cx="1016" cy="388" r="1.4" fill="#4b2a6b" opacity="0.100"></circle><circle cx="1016" cy="444" r="1.4" fill="#4b2a6b" opacity="0.100"></circle><circle cx="1016" cy="500" r="1.4" fill="#4b2a6b" opacity="0.100"></circle><circle cx="1072" cy="52" r="1.4" fill="#4b2a6b" opacity="0.100"></circle><circle cx="1072" cy="108" r="1.4" fill="#4b2a6b" opacity="0.100"></circle><circle cx="1072" cy="164" r="1.4" fill="#4b2a6b" opacity="0.100"></circle><circle cx="1072" cy="220" r="1.4" fill="#4b2a6b" opacity="0.100"></circle><circle cx="1072" cy="276" r="1.4" fill="#4b2a6b" opacity="0.100"></circle><circle cx="1072" cy="332" r="1.4" fill="#4b2a6b" opacity="0.100"></circle><circle cx="1072" cy="388" r="1.4" fill="#4b2a6b" opacity="0.100"></circle><circle cx="1072" cy="444" r="1.4" fill="#4b2a6b" opacity="0.100"></circle><circle cx="1072" cy="500" r="1.4" fill="#4b2a6b" opacity="0.100"></circle><circle cx="1128" cy="52" r="1.4" fill="#4b2a6b" opacity="0.100"></circle><circle cx="1128" cy="108" r="1.4" fill="#4b2a6b" opacity="0.100"></circle><circle cx="1128" cy="164" r="1.4" fill="#4b2a6b" opacity="0.100"></circle><circle cx="1128" cy="220" r="1.4" fill="#4b2a6b" opacity="0.100"></circle><circle cx="1128" cy="276" r="1.4" fill="#4b2a6b" opacity="0.100"></circle><circle cx="1128" cy="332" r="1.4" fill="#4b2a6b" opacity="0.100"></circle><circle cx="1128" cy="388" r="1.4" fill="#4b2a6b" opacity="0.100"></circle><circle cx="1128" cy="444" r="1.4" fill="#4b2a6b" opacity="0.100"></circle><circle cx="1128" cy="500" r="1.4" fill="#4b2a6b" opacity="0.100"></circle><circle cx="1184" cy="52" r="1.4" fill="#4b2a6b" opacity="0.100"></circle><circle cx="1184" cy="108" r="1.4" fill="#4b2a6b" opacity="0.100"></circle><circle cx="1184" cy="164" r="1.4" fill="#4b2a6b" opacity="0.100"></circle><circle cx="1184" cy="220" r="1.4" fill="#4b2a6b" opacity="0.100"></circle><circle cx="1184" cy="276" r="1.4" fill="#4b2a6b" opacity="0.100"></circle><circle cx="1184" cy="332" r="1.4" fill="#4b2a6b" opacity="0.100"></circle><circle cx="1184" cy="388" r="1.4" fill="#4b2a6b" opacity="0.100"></circle><circle cx="1184" cy="444" r="1.4" fill="#4b2a6b" opacity="0.100"></circle><circle cx="1184" cy="500" r="1.4" fill="#4b2a6b" opacity="0.100"></circle><circle cx="1240" cy="52" r="1.4" fill="#4b2a6b" opacity="0.100"></circle><circle cx="1240" cy="108" r="1.4" fill="#4b2a6b" opacity="0.100"></circle><circle cx="1240" cy="164" r="1.4" fill="#4b2a6b" opacity="0.100"></circle><circle cx="1240" cy="220" r="1.4" fill="#4b2a6b" opacity="0.100"></circle><circle cx="1240" cy="276" r="1.4" fill="#4b2a6b" opacity="0.100"></circle><circle cx="1240" cy="332" r="1.4" fill="#4b2a6b" opacity="0.100"></circle><circle cx="1240" cy="388" r="1.4" fill="#4b2a6b" opacity="0.100"></circle><circle cx="1240" cy="444" r="1.4" fill="#4b2a6b" opacity="0.100"></circle><circle cx="1240" cy="500" r="1.4" fill="#4b2a6b" opacity="0.100"></circle><circle cx="1296" cy="52" r="1.4" fill="#4b2a6b" opacity="0.100"></circle><circle cx="1296" cy="108" r="1.4" fill="#4b2a6b" opacity="0.100"></circle><circle cx="1296" cy="164" r="1.4" fill="#4b2a6b" opacity="0.100"></circle><circle cx="1296" cy="220" r="1.4" fill="#4b2a6b" opacity="0.100"></circle><circle cx="1296" cy="276" r="1.4" fill="#4b2a6b" opacity="0.100"></circle><circle cx="1296" cy="332" r="1.4" fill="#4b2a6b" opacity="0.100"></circle><circle cx="1296" cy="388" r="1.4" fill="#4b2a6b" opacity="0.100"></circle><circle cx="1296" cy="444" r="1.4" fill="#4b2a6b" opacity="0.100"></circle><circle cx="1296" cy="500" r="1.4" fill="#4b2a6b" opacity="0.100"></circle><circle cx="1352" cy="52" r="1.4" fill="#4b2a6b" opacity="0.100"></circle><circle cx="1352" cy="108" r="1.4" fill="#4b2a6b" opacity="0.100"></circle><circle cx="1352" cy="164" r="1.4" fill="#4b2a6b" opacity="0.100"></circle><circle cx="1352" cy="220" r="1.4" fill="#4b2a6b" opacity="0.100"></circle><circle cx="1352" cy="276" r="1.4" fill="#4b2a6b" opacity="0.100"></circle><circle cx="1352" cy="332" r="1.4" fill="#4b2a6b" opacity="0.100"></circle><circle cx="1352" cy="388" r="1.4" fill="#4b2a6b" opacity="0.100"></circle><circle cx="1352" cy="444" r="1.4" fill="#4b2a6b" opacity="0.100"></circle><circle cx="1352" cy="500" r="1.4" fill="#4b2a6b" opacity="0.100"></circle><circle cx="1408" cy="52" r="1.4" fill="#4b2a6b" opacity="0.100"></circle><circle cx="1408" cy="108" r="1.4" fill="#4b2a6b" opacity="0.100"></circle><circle cx="1408" cy="164" r="1.4" fill="#4b2a6b" opacity="0.100"></circle><circle cx="1408" cy="220" r="1.4" fill="#4b2a6b" opacity="0.100"></circle><circle cx="1408" cy="276" r="1.4" fill="#4b2a6b" opacity="0.100"></circle><circle cx="1408" cy="332" r="1.4" fill="#4b2a6b" opacity="0.100"></circle><circle cx="1408" cy="388" r="1.4" fill="#4b2a6b" opacity="0.100"></circle><circle cx="1408" cy="444" r="1.4" fill="#4b2a6b" opacity="0.100"></circle><circle cx="1408" cy="500" r="1.4" fill="#4b2a6b" opacity="0.100"></circle><circle cx="1464" cy="52" r="1.4" fill="#4b2a6b" opacity="0.100"></circle><circle cx="1464" cy="108" r="1.4" fill="#4b2a6b" opacity="0.100"></circle><circle cx="1464" cy="164" r="1.4" fill="#4b2a6b" opacity="0.100"></circle><circle cx="1464" cy="220" r="1.4" fill="#4b2a6b" opacity="0.100"></circle><circle cx="1464" cy="276" r="1.4" fill="#4b2a6b" opacity="0.100"></circle><circle cx="1464" cy="332" r="1.4" fill="#4b2a6b" opacity="0.100"></circle><circle cx="1464" cy="388" r="1.4" fill="#4b2a6b" opacity="0.100"></circle><circle cx="1464" cy="444" r="1.4" fill="#4b2a6b" opacity="0.100"></circle><circle cx="1464" cy="500" r="1.4" fill="#4b2a6b" opacity="0.100"></circle><circle cx="1520" cy="52" r="1.4" fill="#4b2a6b" opacity="0.100"></circle><circle cx="1520" cy="108" r="1.4" fill="#4b2a6b" opacity="0.100"></circle><circle cx="1520" cy="164" r="1.4" fill="#4b2a6b" opacity="0.100"></circle><circle cx="1520" cy="220" r="1.4" fill="#4b2a6b" opacity="0.100"></circle><circle cx="1520" cy="276" r="1.4" fill="#4b2a6b" opacity="0.100"></circle><circle cx="1520" cy="332" r="1.4" fill="#4b2a6b" opacity="0.100"></circle><circle cx="1520" cy="388" r="1.4" fill="#4b2a6b" opacity="0.100"></circle><circle cx="1520" cy="444" r="1.4" fill="#4b2a6b" opacity="0.100"></circle><circle cx="1520" cy="500" r="1.4" fill="#4b2a6b" opacity="0.100"></circle></g>
<g><line x1="1050" y1="90" x2="1180" y2="58" stroke="#4b2a6b" stroke-width="1.2" opacity="0.220"></line><line x1="1180" y1="58" x2="1300" y2="108" stroke="#4b2a6b" stroke-width="1.2" opacity="0.220"></line><line x1="1300" y1="108" x2="1470" y2="150" stroke="#4b2a6b" stroke-width="1.2" opacity="0.220"></line><line x1="1470" y1="150" x2="1540" y2="66" stroke="#4b2a6b" stroke-width="1.2" opacity="0.220"></line><line x1="1180" y1="58" x2="1540" y2="66" stroke="#4b2a6b" stroke-width="1.2" opacity="0.220"></line><line x1="1050" y1="90" x2="1470" y2="150" stroke="#4b2a6b" stroke-width="1.2" opacity="0.220"></line><line x1="560" y1="524" x2="700" y2="560" stroke="#4b2a6b" stroke-width="1.2" opacity="0.220"></line><line x1="700" y1="560" x2="860" y2="520" stroke="#4b2a6b" stroke-width="1.2" opacity="0.220"></line><line x1="1240" y1="540" x2="1380" y2="500" stroke="#4b2a6b" stroke-width="1.2" opacity="0.220"></line><line x1="250" y1="160" x2="185" y2="300" stroke="#4b2a6b" stroke-width="1.2" opacity="0.220"></line><circle cx="1050" cy="90" r="3" fill="#4b2a6b" opacity="0.330"></circle><circle cx="1180" cy="58" r="3" fill="#4b2a6b" opacity="0.330"></circle><circle cx="1300" cy="108" r="3" fill="#4b2a6b" opacity="0.330"></circle><circle cx="1470" cy="150" r="3" fill="#4b2a6b" opacity="0.330"></circle><circle cx="1540" cy="66" r="3" fill="#4b2a6b" opacity="0.330"></circle><circle cx="560" cy="524" r="3" fill="#4b2a6b" opacity="0.330"></circle><circle cx="700" cy="560" r="3" fill="#4b2a6b" opacity="0.330"></circle><circle cx="860" cy="520" r="3" fill="#4b2a6b" opacity="0.330"></circle><circle cx="1240" cy="540" r="3" fill="#4b2a6b" opacity="0.330"></circle><circle cx="1380" cy="500" r="3" fill="#4b2a6b" opacity="0.330"></circle><circle cx="250" cy="160" r="3" fill="#4b2a6b" opacity="0.330"></circle><circle cx="185" cy="300" r="3" fill="#4b2a6b" opacity="0.330"></circle></g>
<g><line x1="770" y1="205" x2="835" y2="205" stroke="#9a7fbb" stroke-width="2" stroke-dasharray="2 5" stroke-linecap="round" opacity="0.4"></line><circle cx="803" cy="205" r="2.6" fill="#9a7fbb" opacity="0.5"></circle><line x1="1075" y1="300" x2="1075" y2="248" stroke="#9a7fbb" stroke-width="2" stroke-dasharray="2 5" stroke-linecap="round" opacity="0.4"></line><circle cx="1075" cy="274" r="2.6" fill="#9a7fbb" opacity="0.5"></circle><line x1="520" y1="360" x2="598" y2="360" stroke="#9a7fbb" stroke-width="2" stroke-dasharray="2 5" stroke-linecap="round" opacity="0.4"></line><circle cx="559" cy="360" r="2.6" fill="#9a7fbb" opacity="0.5"></circle></g>
<g><path d="M 620 300 L 812.0 300.0 Q 820 300 820.0 308.0 L 820 490" fill="none" stroke="#9a7fbb" stroke-width="3.5" stroke-linecap="round" stroke-linejoin="round" stroke-dasharray="1.5 9" opacity="0.5"></path><circle cx="820" cy="490" r="4.5" fill="#f4f0f8" stroke="#9a7fbb" stroke-width="2" opacity="0.6"></circle><path d="M 900 360 L 900.0 512.0 Q 900 520 908.0 520.0 L 1110 520" fill="none" stroke="#9a7fbb" stroke-width="3.5" stroke-linecap="round" stroke-linejoin="round" stroke-dasharray="1.5 9" opacity="0.5"></path><circle cx="1110" cy="520" r="4.5" fill="#f4f0f8" stroke="#9a7fbb" stroke-width="2" opacity="0.6"></circle><path d="M 1180 360 L 1372.0 360.0 Q 1380 360 1380.0 352.0 L 1380 250" fill="none" stroke="#9a7fbb" stroke-width="3.5" stroke-linecap="round" stroke-linejoin="round" stroke-dasharray="1.5 9" opacity="0.5"></path><circle cx="1380" cy="250" r="4.5" fill="#f4f0f8" stroke="#9a7fbb" stroke-width="2" opacity="0.6"></circle><path d="M 900 140 L 900.0 80.0 Q 900 72 908.0 72.0 L 1150 72" fill="none" stroke="#9a7fbb" stroke-width="3.5" stroke-linecap="round" stroke-linejoin="round" stroke-dasharray="1.5 9" opacity="0.5"></path><circle cx="1150" cy="72" r="4.5" fill="#f4f0f8" stroke="#9a7fbb" stroke-width="2" opacity="0.6"></circle><path d="M 380 300 L 218.0 300.0 Q 210 300 210.0 292.0 L 210 150" fill="none" stroke="#9a7fbb" stroke-width="3.5" stroke-linecap="round" stroke-linejoin="round" stroke-dasharray="1.5 9" opacity="0.5"></path><circle cx="210" cy="150" r="4.5" fill="#f4f0f8" stroke="#9a7fbb" stroke-width="2" opacity="0.6"></circle><path d="M 1420 200 L 1420.0 92.0 Q 1420 84 1428.0 84.0 L 1560 84" fill="none" stroke="#9a7fbb" stroke-width="3.5" stroke-linecap="round" stroke-linejoin="round" stroke-dasharray="1.5 9" opacity="0.5"></path><circle cx="1560" cy="84" r="4.5" fill="#f4f0f8" stroke="#9a7fbb" stroke-width="2" opacity="0.6"></circle><path d="M 620 140 L 458.0 140.0 Q 450 140 450.0 132.0 L 450 60" fill="none" stroke="#9a7fbb" stroke-width="3.5" stroke-linecap="round" stroke-linejoin="round" stroke-dasharray="1.5 9" opacity="0.5"></path><circle cx="450" cy="60" r="4.5" fill="#f4f0f8" stroke="#9a7fbb" stroke-width="2" opacity="0.6"></circle><path d="M 1180 200 L 1018.0 200.0 Q 1010 200 1010.0 208.0 L 1010 300" fill="none" stroke="#9a7fbb" stroke-width="3.5" stroke-linecap="round" stroke-linejoin="round" stroke-dasharray="1.5 9" opacity="0.5"></path><circle cx="1010" cy="300" r="4.5" fill="#f4f0f8" stroke="#9a7fbb" stroke-width="2" opacity="0.6"></circle><path d="M 1180 360 L 1180.0 462.0 Q 1180 470 1188.0 470.0 L 1330 470" fill="none" stroke="#9a7fbb" stroke-width="3.5" stroke-linecap="round" stroke-linejoin="round" stroke-dasharray="1.5 9" opacity="0.5"></path><circle cx="1330" cy="470" r="4.5" fill="#f4f0f8" stroke="#9a7fbb" stroke-width="2" opacity="0.6"></circle></g>
<rect x="0" y="0" width="520" height="600" fill="url(#safe)"></rect>
<g><circle cx="900" cy="140" r="21" fill="none" stroke="#9b1f8f" stroke-width="1.6" stroke-dasharray="3 5" opacity="0.55"></circle><circle cx="1180" cy="200" r="21" fill="none" stroke="#9b1f8f" stroke-width="1.6" stroke-dasharray="3 5" opacity="0.55"></circle></g>
<path d="M 380 460 L 380.0 308.0 Q 380 300 388.0 300.0 L 612.0 300.0 Q 620 300 620.0 292.0 L 620.0 148.0 Q 620 140 628.0 140.0 L 892.0 140.0 Q 900 140 900.0 148.0 L 900.0 352.0 Q 900 360 908.0 360.0 L 1172.0 360.0 Q 1180 360 1180.0 352.0 L 1180.0 208.0 Q 1180 200 1188.0 200.0 L 1412.0 200.0 Q 1420 200 1420.0 208.0 L 1420.0 412.0 Q 1420 420 1428.0 420.0 L 1540 420" fill="none" stroke="#500778" stroke-width="20" stroke-linecap="round" stroke-linejoin="round" opacity="0.12"></path>
<path d="M 380 460 L 380.0 308.0 Q 380 300 388.0 300.0 L 612.0 300.0 Q 620 300 620.0 292.0 L 620.0 148.0 Q 620 140 628.0 140.0 L 892.0 140.0 Q 900 140 900.0 148.0 L 900.0 352.0 Q 900 360 908.0 360.0 L 1172.0 360.0 Q 1180 360 1180.0 352.0 L 1180.0 208.0 Q 1180 200 1188.0 200.0 L 1412.0 200.0 Q 1420 200 1420.0 208.0 L 1420.0 412.0 Q 1420 420 1428.0 420.0 L 1540 420" fill="none" stroke="url(#route)" stroke-width="8" stroke-linecap="round" stroke-linejoin="round"></path>
<g><path d="M 506.5 300.0 L 496.4 305.2 L 496.4 294.8 Z" fill="#ffffff"></path><path d="M 766.5 140.0 L 756.4 145.2 L 756.4 134.8 Z" fill="#ffffff"></path><path d="M 1046.5 360.0 L 1036.4 365.2 L 1036.4 354.8 Z" fill="#ffffff"></path><path d="M 1306.5 200.0 L 1296.4 205.2 L 1296.4 194.8 Z" fill="#ffffff"></path><path d="M 1420.0 316.5 L 1414.8 306.4 L 1425.2 306.4 Z" fill="#ffffff"></path></g>
<g><circle cx="380" cy="460" r="13" fill="#f4f0f8" stroke="#500778" stroke-width="3.5"></circle><circle cx="380" cy="460" r="5" fill="#500778"></circle><circle cx="380" cy="300" r="6.5" fill="#500778" stroke="#ffffff" stroke-width="3"></circle><circle cx="620" cy="300" r="6.5" fill="#500778" stroke="#ffffff" stroke-width="3"></circle><circle cx="620" cy="140" r="6.5" fill="#500778" stroke="#ffffff" stroke-width="3"></circle><circle cx="900" cy="140" r="26" fill="url(#glow)"></circle><circle cx="900" cy="140" r="10.5" fill="#9b1f8f" stroke="#ffffff" stroke-width="3.5"></circle><circle cx="900" cy="140" r="3" fill="#ffffff"></circle><circle cx="900" cy="360" r="6.5" fill="#500778" stroke="#ffffff" stroke-width="3"></circle><circle cx="1180" cy="360" r="6.5" fill="#500778" stroke="#ffffff" stroke-width="3"></circle><circle cx="1180" cy="200" r="26" fill="url(#glow)"></circle><circle cx="1180" cy="200" r="10.5" fill="#9b1f8f" stroke="#ffffff" stroke-width="3.5"></circle><circle cx="1180" cy="200" r="3" fill="#ffffff"></circle><circle cx="1420" cy="200" r="6.5" fill="#500778" stroke="#ffffff" stroke-width="3"></circle><circle cx="1420" cy="420" r="6.5" fill="#500778" stroke="#ffffff" stroke-width="3"></circle><circle cx="1540" cy="420" r="30" fill="url(#glow)"></circle><circle cx="1540" cy="420" r="20" fill="none" stroke="#9b1f8f" stroke-width="2" opacity="0.7"></circle><circle cx="1540" cy="420" r="13" fill="none" stroke="#9b1f8f" stroke-width="2.5"></circle><circle cx="1540" cy="420" r="6" fill="#9b1f8f"></circle></g>
</svg>