<svg xmlns="http://www.w3.org/2000/svg" width="1440" height="260" viewBox="0 0 1440 260" preserveAspectRatio="xMidYMid slice" role="img" aria-label="Abstract top-down navigation maze representing decision-making">
<defs>
<linearGradient id="bg" x1="0" y1="0" x2="1" y2="1"><stop offset="0" stop-color="#3a0a55"></stop><stop offset="1" stop-color="#1d0432"></stop></linearGradient>
<linearGradient id="route" x1="0" y1="0" x2="1" y2="0"><stop offset="0" stop-color="#e9c4ff"></stop><stop offset="1" stop-color="#ffffff"></stop></linearGradient>
<radialGradient id="glow" cx="0.5" cy="0.5" r="0.5"><stop offset="0" stop-color="#ff8ae0" stop-opacity="0.32"></stop><stop offset="1" stop-color="#ff8ae0" stop-opacity="0"></stop></radialGradient>
</defs>
<rect width="1440" height="260" fill="url(#bg)"></rect>
<g><circle cx="48" cy="40" r="1.3" fill="#b48fd6" opacity="0.160"></circle><circle cx="48" cy="84" r="1.3" fill="#b48fd6" opacity="0.160"></circle><circle cx="48" cy="128" r="1.3" fill="#b48fd6" opacity="0.160"></circle><circle cx="48" cy="172" r="1.3" fill="#b48fd6" opacity="0.160"></circle><circle cx="48" cy="216" r="1.3" fill="#b48fd6" opacity="0.160"></circle><circle cx="96" cy="40" r="1.3" fill="#b48fd6" opacity="0.160"></circle><circle cx="96" cy="84" r="1.3" fill="#b48fd6" opacity="0.160"></circle><circle cx="96" cy="128" r="1.3" fill="#b48fd6" opacity="0.160"></circle><circle cx="96" cy="172" r="1.3" fill="#b48fd6" opacity="0.160"></circle><circle cx="96" cy="216" r="1.3" fill="#b48fd6" opacity="0.160"></circle><circle cx="144" cy="40" r="1.3" fill="#b48fd6" opacity="0.160"></circle><circle cx="144" cy="84" r="1.3" fill="#b48fd6" opacity="0.160"></circle><circle cx="144" cy="128" r="1.3" fill="#b48fd6" opacity="0.160"></circle><circle cx="144" cy="172" r="1.3" fill="#b48fd6" opacity="0.160"></circle><circle cx="144" cy="216" r="1.3" fill="#b48fd6" opacity="0.160"></circle><circle cx="192" cy="40" r="1.3" fill="#b48fd6" opacity="0.160"></circle><circle cx="192" cy="84" r="1.3" fill="#b48fd6" opacity="0.160"></circle><circle cx="192" cy="128" r="1.3" fill="#b48fd6" opacity="0.160"></circle><circle cx="192" cy="172" r="1.3" fill="#b48fd6" opacity="0.160"></circle><circle cx="192" cy="216" r="1.3" fill="#b48fd6" opacity="0.160"></circle><circle cx="240" cy="40" r="1.3" fill="#b48fd6" opacity="0.160"></circle><circle cx="240" cy="84" r="1.3" fill="#b48fd6" opacity="0.160"></circle><circle cx="240" cy="128" r="1.3" fill="#b48fd6" opacity="0.160"></circle><circle cx="240" cy="172" r="1.3" fill="#b48fd6" opacity="0.160"></circle><circle cx="240" cy="216" r="1.3" fill="#b48fd6" opacity="0.160"></circle><circle cx="288" cy="40" r="1.3" fill="#b48fd6" opacity="0.160"></circle><circle cx="288" cy="84" r="1.3" fill="#b48fd6" opacity="0.160"></circle><circle cx="288" cy="128" r="1.3" fill="#b48fd6" opacity="0.160"></circle><circle cx="288" cy="172" r="1.3" fill="#b48fd6" opacity="0.160"></circle><circle cx="288" cy="216" r="1.3" fill="#b48fd6" opacity="0.160"></circle><circle cx="336" cy="40" r="1.3" fill="#b48fd6" opacity="0.160"></circle><circle cx="336" cy="84" r="1.3" fill="#b48fd6" opacity="0.160"></circle><circle cx="336" cy="128" r="1.3" fill="#b48fd6" opacity="0.160"></circle><circle cx="336" cy="172" r="1.3" fill="#b48fd6" opacity="0.160"></circle><circle cx="336" cy="216" r="1.3" fill="#b48fd6" opacity="0.160"></circle><circle cx="384" cy="40" r="1.3" fill="#b48fd6" opacity="0.160"></circle><circle cx="384" cy="84" r="1.3" fill="#b48fd6" opacity="0.160"></circle><circle cx="384" cy="128" r="1.3" fill="#b48fd6" opacity="0.160"></circle><circle cx="384" cy="172" r="1.3" fill="#b48fd6" opacity="0.160"></circle><circle cx="384" cy="216" r="1.3" fill="#b48fd6" opacity="0.160"></circle><circle cx="432" cy="40" r="1.3" fill="#b48fd6" opacity="0.160"></circle><circle cx="432" cy="84" r="1.3" fill="#b48fd6" opacity="0.160"></circle><circle cx="432" cy="128" r="1.3" fill="#b48fd6" opacity="0.160"></circle><circle cx="432" cy="172" r="1.3" fill="#b48fd6" opacity="0.160"></circle><circle cx="432" cy="216" r="1.3" fill="#b48fd6" opacity="0.160"></circle><circle cx="480" cy="40" r="1.3" fill="#b48fd6" opacity="0.160"></circle><circle cx="480" cy="84" r="1.3" fill="#b48fd6" opacity="0.160"></circle><circle cx="480" cy="128" r="1.3" fill="#b48fd6" opacity="0.160"></circle><circle cx="480" cy="172" r="1.3" fill="#b48fd6" opacity="0.160"></circle><circle cx="480" cy="216" r="1.3" fill="#b48fd6" opacity="0.160"></circle><circle cx="528" cy="40" r="1.3" fill="#b48fd6" opacity="0.160"></circle><circle cx="528" cy="84" r="1.3" fill="#b48fd6" opacity="0.160"></circle><circle cx="528" cy="128" r="1.3" fill="#b48fd6" opacity="0.160"></circle><circle cx="528" cy="172" r="1.3" fill="#b48fd6" opacity="0.160"></circle><circle cx="528" cy="216" r="1.3" fill="#b48fd6" opacity="0.160"></circle><circle cx="576" cy="40" r="1.3" fill="#b48fd6" opacity="0.160"></circle><circle cx="576" cy="84" r="1.3" fill="#b48fd6" opacity="0.160"></circle><circle cx="576" cy="128" r="1.3" fill="#b48fd6" opacity="0.160"></circle><circle cx="576" cy="172" r="1.3" fill="#b48fd6" opacity="0.160"></circle><circle cx="576" cy="216" r="1.3" fill="#b48fd6" opacity="0.160"></circle><circle cx="624" cy="40" r="1.3" fill="#b48fd6" opacity="0.160"></circle><circle cx="624" cy="84" r="1.3" fill="#b48fd6" opacity="0.160"></circle><circle cx="624" cy="128" r="1.3" fill="#b48fd6" opacity="0.160"></circle><circle cx="624" cy="172" r="1.3" fill="#b48fd6" opacity="0.160"></circle><circle cx="624" cy="216" r="1.3" fill="#b48fd6" opacity="0.160"></circle><circle cx="672" cy="40" r="1.3" fill="#b48fd6" opacity="0.160"></circle><circle cx="672" cy="84" r="1.3" fill="#b48fd6" opacity="0.160"></circle><circle cx="672" cy="128" r="1.3" fill="#b48fd6" opacity="0.160"></circle><circle cx="672" cy="172" r="1.3" fill="#b48fd6" opacity="0.160"></circle><circle cx="672" cy="216" r="1.3" fill="#b48fd6" opacity="0.160"></circle><circle cx="720" cy="40" r="1.3" fill="#b48fd6" opacity="0.160"></circle><circle cx="720" cy="84" r="1.3" fill="#b48fd6" opacity="0.160"></circle><circle cx="720" cy="128" r="1.3" fill="#b48fd6" opacity="0.160"></circle><circle cx="720" cy="172" r="1.3" fill="#b48fd6" opacity="0.160"></circle><circle cx="720" cy="216" r="1.3" fill="#b48fd6" opacity="0.160"></circle><circle cx="768" cy="40" r="1.3" fill="#b48fd6" opacity="0.160"></circle><circle cx="768" cy="84" r="1.3" fill="#b48fd6" opacity="0.160"></circle><circle cx="768" cy="128" r="1.3" fill="#b48fd6" opacity="0.160"></circle><circle cx="768" cy="172" r="1.3" fill="#b48fd6" opacity="0.160"></circle><circle cx="768" cy="216" r="1.3" fill="#b48fd6" opacity="0.160"></circle><circle cx="816" cy="40" r="1.3" fill="#b48fd6" opacity="0.160"></circle><circle cx="816" cy="84" r="1.3" fill="#b48fd6" opacity="0.160"></circle><circle cx="816" cy="128" r="1.3" fill="#b48fd6" opacity="0.160"></circle><circle cx="816" cy="172" r="1.3" fill="#b48fd6" opacity="0.160"></circle><circle cx="816" cy="216" r="1.3" fill="#b48fd6" opacity="0.160"></circle><circle cx="864" cy="40" r="1.3" fill="#b48fd6" opacity="0.160"></circle><circle cx="864" cy="84" r="1.3" fill="#b48fd6" opacity="0.160"></circle><circle cx="864" cy="128" r="1.3" fill="#b48fd6" opacity="0.160"></circle><circle cx="864" cy="172" r="1.3" fill="#b48fd6" opacity="0.160"></circle><circle cx="864" cy="216" r="1.3" fill="#b48fd6" opacity="0.160"></circle><circle cx="912" cy="40" r="1.3" fill="#b48fd6" opacity="0.160"></circle><circle cx="912" cy="84" r="1.3" fill="#b48fd6" opacity="0.160"></circle><circle cx="912" cy="128" r="1.3" fill="#b48fd6" opacity="0.160"></circle><circle cx="912" cy="172" r="1.3" fill="#b48fd6" opacity="0.160"></circle><circle cx="912" cy="216" r="1.3" fill="#b48fd6" opacity="0.160"></circle><circle cx="960" cy="40" r="1.3" fill="#b48fd6" opacity="0.160"></circle><circle cx="960" cy="84" r="1.3" fill="#b48fd6" opacity="0.160"></circle><circle cx="960" cy="128" r="1.3" fill="#b48fd6" opacity="0.160"></circle><circle cx="960" cy="172" r="1.3" fill="#b48fd6" opacity="0.160"></circle><circle cx="960" cy="216" r="1.3" fill="#b48fd6" opacity="0.160"></circle><circle cx="1008" cy="40" r="1.3" fill="#b48fd6" opacity="0.160"></circle><circle cx="1008" cy="84" r="1.3" fill="#b48fd6" opacity="0.160"></circle><circle cx="1008" cy="128" r="1.3" fill="#b48fd6" opacity="0.160"></circle><circle cx="1008" cy="172" r="1.3" fill="#b48fd6" opacity="0.160"></circle><circle cx="1008" cy="216" r="1.3" fill="#b48fd6" opacity="0.160"></circle><circle cx="1056" cy="40" r="1.3" fill="#b48fd6" opacity="0.160"></circle><circle cx="1056" cy="84" r="1.3" fill="#b48fd6" opacity="0.160"></circle><circle cx="1056" cy="128" r="1.3" fill="#b48fd6" opacity="0.160"></circle><circle cx="1056" cy="172" r="1.3" fill="#b48fd6" opacity="0.160"></circle><circle cx="1056" cy="216" r="1.3" fill="#b48fd6" opacity="0.160"></circle><circle cx="1104" cy="40" r="1.3" fill="#b48fd6" opacity="0.160"></circle><circle cx="1104" cy="84" r="1.3" fill="#b48fd6" opacity="0.160"></circle><circle cx="1104" cy="128" r="1.3" fill="#b48fd6" opacity="0.160"></circle><circle cx="1104" cy="172" r="1.3" fill="#b48fd6" opacity="0.160"></circle><circle cx="1104" cy="216" r="1.3" fill="#b48fd6" opacity="0.160"></circle><circle cx="1152" cy="40" r="1.3" fill="#b48fd6" opacity="0.160"></circle><circle cx="1152" cy="84" r="1.3" fill="#b48fd6" opacity="0.160"></circle><circle cx="1152" cy="128" r="1.3" fill="#b48fd6" opacity="0.160"></circle><circle cx="1152" cy="172" r="1.3" fill="#b48fd6" opacity="0.160"></circle><circle cx="1152" cy="216" r="1.3" fill="#b48fd6" opacity="0.160"></circle><circle cx="1200" cy="40" r="1.3" fill="#b48fd6" opacity="0.160"></circle><circle cx="1200" cy="84" r="1.3" fill="#b48fd6" opacity="0.160"></circle><circle cx="1200" cy="128" r="1.3" fill="#b48fd6" opacity="0.160"></circle><circle cx="1200" cy="172" r="1.3" fill="#b48fd6" opacity="0.160"></circle><circle cx="1200" cy="216" r="1.3" fill="#b48fd6" opacity="0.160"></circle><circle cx="1248" cy="40" r="1.3" fill="#b48fd6" opacity="0.160"></circle><circle cx="1248" cy="84" r="1.3" fill="#b48fd6" opacity="0.160"></circle><circle cx="1248" cy="128" r="1.3" fill="#b48fd6" opacity="0.160"></circle><circle cx="1248" cy="172" r="1.3" fill="#b48fd6" opacity="0.160"></circle><circle cx="1248" cy="216" r="1.3" fill="#b48fd6" opacity="0.160"></circle><circle cx="1296" cy="40" r="1.3" fill="#b48fd6" opacity="0.160"></circle><circle cx="1296" cy="84" r="1.3" fill="#b48fd6" opacity="0.160"></circle><circle cx="1296" cy="128" r="1.3" fill="#b48fd6" opacity="0.160"></circle><circle cx="1296" cy="172" r="1.3" fill="#b48fd6" opacity="0.160"></circle><circle cx="1296" cy="216" r="1.3" fill="#b48fd6" opacity="0.160"></circle><circle cx="1344" cy="40" r="1.3" fill="#b48fd6" opacity="0.160"></circle><circle cx="1344" cy="84" r="1.3" fill="#b48fd6" opacity="0.160"></circle><circle cx="1344" cy="128" r="1.3" fill="#b48fd6" opacity="0.160"></circle><circle cx="1344" cy="172" r="1.3" fill="#b48fd6" opacity="0.160"></circle><circle cx="1344" cy="216" r="1.3" fill="#b48fd6" opacity="0.160"></circle><circle cx="1392" cy="40" r="1.3" fill="#b48fd6" opacity="0.160"></circle><circle cx="1392" cy="84" r="1.3" fill="#b48fd6" opacity="0.160"></circle><circle cx="1392" cy="128" r="1.3" fill="#b48fd6" opacity="0.160"></circle><circle cx="1392" cy="172" r="1.3" fill="#b48fd6" opacity="0.160"></circle><circle cx="1392" cy="216" r="1.3" fill="#b48fd6" opacity="0.160"></circle></g>
<g><line x1="150" y1="40" x2="300" y2="26" stroke="#b48fd6" stroke-width="1.1" opacity="0.300"></line><line x1="300" y1="26" x2="520" y2="20" stroke="#b48fd6" stroke-width="1.1" opacity="0.300"></line><line x1="520" y1="20" x2="760" y2="40" stroke="#b48fd6" stroke-width="1.1" opacity="0.300"></line><line x1="1180" y1="32" x2="1338" y2="48" stroke="#b48fd6" stroke-width="1.1" opacity="0.300"></line><line x1="200" y1="228" x2="548" y2="236" stroke="#b48fd6" stroke-width="1.1" opacity="0.300"></line><line x1="946" y1="230" x2="1240" y2="232" stroke="#b48fd6" stroke-width="1.1" opacity="0.300"></line><circle cx="150" cy="40" r="2.6" fill="#b48fd6" opacity="0.450"></circle><circle cx="300" cy="26" r="2.6" fill="#b48fd6" opacity="0.450"></circle><circle cx="520" cy="20" r="2.6" fill="#b48fd6" opacity="0.450"></circle><circle cx="760" cy="40" r="2.6" fill="#b48fd6" opacity="0.450"></circle><circle cx="1180" cy="32" r="2.6" fill="#b48fd6" opacity="0.450"></circle><circle cx="1338" cy="48" r="2.6" fill="#b48fd6" opacity="0.450"></circle><circle cx="200" cy="228" r="2.6" fill="#b48fd6" opacity="0.450"></circle><circle cx="548" cy="236" r="2.6" fill="#b48fd6" opacity="0.450"></circle><circle cx="946" cy="230" r="2.6" fill="#b48fd6" opacity="0.450"></circle><circle cx="1240" cy="232" r="2.6" fill="#b48fd6" opacity="0.450"></circle></g>
<g><line x1="522" y1="130" x2="582" y2="130" stroke="#9a6fbf" stroke-width="1.8" stroke-dasharray="2 5" stroke-linecap="round" opacity="0.4"></line><circle cx="552" cy="130" r="2.4" fill="#9a6fbf" opacity="0.5"></circle><line x1="940" y1="128" x2="940" y2="168" stroke="#9a6fbf" stroke-width="1.8" stroke-dasharray="2 5" stroke-linecap="round" opacity="0.4"></line><circle cx="940" cy="148" r="2.4" fill="#9a6fbf" opacity="0.5"></circle></g>
<g><path d="M 232 72 L 232.0 33.0 Q 232 26 239.0 26.0 L 372 26" fill="none" stroke="#9a6fbf" stroke-width="3" stroke-linecap="round" stroke-linejoin="round" stroke-dasharray="1.5 8" opacity="0.5"></path><circle cx="372" cy="26" r="4" fill="#3a0a55" stroke="#9a6fbf" stroke-width="1.8" opacity="0.6"></circle><path d="M 430 190 L 430.0 229.0 Q 430 236 437.0 236.0 L 600 236" fill="none" stroke="#9a6fbf" stroke-width="3" stroke-linecap="round" stroke-linejoin="round" stroke-dasharray="1.5 8" opacity="0.5"></path><circle cx="600" cy="236" r="4" fill="#3a0a55" stroke="#9a6fbf" stroke-width="1.8" opacity="0.6"></circle><path d="M 640 92 L 640.0 37.0 Q 640 30 647.0 30.0 L 792 30" fill="none" stroke="#9a6fbf" stroke-width="3" stroke-linecap="round" stroke-linejoin="round" stroke-dasharray="1.5 8" opacity="0.5"></path><circle cx="792" cy="30" r="4" fill="#3a0a55" stroke="#9a6fbf" stroke-width="1.8" opacity="0.6"></circle><path d="M 862 172 L 862.0 227.0 Q 862 234 869.0 234.0 L 1004 234" fill="none" stroke="#9a6fbf" stroke-width="3" stroke-linecap="round" stroke-linejoin="round" stroke-dasharray="1.5 8" opacity="0.5"></path><circle cx="1004" cy="234" r="4" fill="#3a0a55" stroke="#9a6fbf" stroke-width="1.8" opacity="0.6"></circle><path d="M 1082 80 L 1082.0 35.0 Q 1082 28 1089.0 28.0 L 1212 28" fill="none" stroke="#9a6fbf" stroke-width="3" stroke-linecap="round" stroke-linejoin="round" stroke-dasharray="1.5 8" opacity="0.5"></path><circle cx="1212" cy="28" r="4" fill="#3a0a55" stroke="#9a6fbf" stroke-width="1.8" opacity="0.6"></circle><path d="M 1284 182 L 1284.0 229.0 Q 1284 236 1291.0 236.0 L 1372 236" fill="none" stroke="#9a6fbf" stroke-width="3" stroke-linecap="round" stroke-linejoin="round" stroke-dasharray="1.5 8" opacity="0.5"></path><circle cx="1372" cy="236" r="4" fill="#3a0a55" stroke="#9a6fbf" stroke-width="1.8" opacity="0.6"></circle><path d="M 430 92 L 337.0 92.0 Q 330 92 330.0 99.0 L 330 150" fill="none" stroke="#9a6fbf" stroke-width="3" stroke-linecap="round" stroke-linejoin="round" stroke-dasharray="1.5 8" opacity="0.5"></path><circle cx="330" cy="150" r="4" fill="#3a0a55" stroke="#9a6fbf" stroke-width="1.8" opacity="0.6"></circle><path d="M 1082 182 L 1183.0 182.0 Q 1190 182 1190.0 175.0 L 1190 120" fill="none" stroke="#9a6fbf" stroke-width="3" stroke-linecap="round" stroke-linejoin="round" stroke-dasharray="1.5 8" opacity="0.5"></path><circle cx="1190" cy="120" r="4" fill="#3a0a55" stroke="#9a6fbf" stroke-width="1.8" opacity="0.6"></circle></g>
<g><circle cx="232" cy="72" r="16" fill="none" stroke="#ff8ae0" stroke-width="1.4" stroke-dasharray="3 5" opacity="0.55"></circle><circle cx="640" cy="92" r="16" fill="none" stroke="#ff8ae0" stroke-width="1.4" stroke-dasharray="3 5" opacity="0.55"></circle><circle cx="1082" cy="80" r="16" fill="none" stroke="#ff8ae0" stroke-width="1.4" stroke-dasharray="3 5" opacity="0.55"></circle></g>
<path d="M 60 130 L 60.0 79.0 Q 60 72 67.0 72.0 L 225.0 72.0 Q 232 72 232.0 79.0 L 232.0 183.0 Q 232 190 239.0 190.0 L 423.0 190.0 Q 430 190 430.0 183.0 L 430.0 99.0 Q 430 92 437.0 92.0 L 633.0 92.0 Q 640 92 640.0 99.0 L 640.0 165.0 Q 640 172 647.0 172.0 L 855.0 172.0 Q 862 172 862.0 165.0 L 862.0 87.0 Q 862 80 869.0 80.0 L 1075.0 80.0 Q 1082 80 1082.0 87.0 L 1082.0 175.0 Q 1082 182 1089.0 182.0 L 1277.0 182.0 Q 1284 182 1284.0 175.0 L 1284.0 119.0 Q 1284 112 1291.0 112.0 L 1384 112" fill="none" stroke="#e9c4ff" stroke-width="16" stroke-linecap="round" stroke-linejoin="round" opacity="0.12"></path>
<path d="M 60 130 L 60.0 79.0 Q 60 72 67.0 72.0 L 225.0 72.0 Q 232 72 232.0 79.0 L 232.0 183.0 Q 232 190 239.0 190.0 L 423.0 190.0 Q 430 190 430.0 183.0 L 430.0 99.0 Q 430 92 437.0 92.0 L 633.0 92.0 Q 640 92 640.0 99.0 L 640.0 165.0 Q 640 172 647.0 172.0 L 855.0 172.0 Q 862 172 862.0 165.0 L 862.0 87.0 Q 862 80 869.0 80.0 L 1075.0 80.0 Q 1082 80 1082.0 87.0 L 1082.0 175.0 Q 1082 182 1089.0 182.0 L 1277.0 182.0 Q 1284 182 1284.0 175.0 L 1284.0 119.0 Q 1284 112 1291.0 112.0 L 1384 112" fill="none" stroke="url(#route)" stroke-width="6.5" stroke-linecap="round" stroke-linejoin="round"></path>
<g><path d="M 151.5 72.0 L 143.0 76.4 L 143.0 67.6 Z" fill="#2a0540"></path><path d="M 336.5 190.0 L 328.0 194.4 L 328.0 185.6 Z" fill="#2a0540"></path><path d="M 540.5 92.0 L 532.0 96.4 L 532.0 87.6 Z" fill="#2a0540"></path><path d="M 756.5 172.0 L 748.0 176.4 L 748.0 167.6 Z" fill="#2a0540"></path><path d="M 977.5 80.0 L 969.0 84.4 L 969.0 75.6 Z" fill="#2a0540"></path><path d="M 1188.5 182.0 L 1180.0 186.4 L 1180.0 177.6 Z" fill="#2a0540"></path></g>
<g><circle cx="60" cy="130" r="11" fill="#3a0a55" stroke="#e9c4ff" stroke-width="3"></circle><circle cx="60" cy="130" r="4.2" fill="#e9c4ff"></circle><circle cx="60" cy="72" r="5.5" fill="#f0d9ff" stroke="#2a0540" stroke-width="2.6"></circle><circle cx="232" cy="72" r="20" fill="url(#glow)"></circle><circle cx="232" cy="72" r="9" fill="#ff8ae0" stroke="#2a0540" stroke-width="3"></circle><circle cx="232" cy="72" r="2.6" fill="#2a0540"></circle><circle cx="232" cy="190" r="5.5" fill="#f0d9ff" stroke="#2a0540" stroke-width="2.6"></circle><circle cx="430" cy="190" r="5.5" fill="#f0d9ff" stroke="#2a0540" stroke-width="2.6"></circle><circle cx="430" cy="92" r="5.5" fill="#f0d9ff" stroke="#2a0540" stroke-width="2.6"></circle><circle cx="640" cy="92" r="20" fill="url(#glow)"></circle><circle cx="640" cy="92" r="9" fill="#ff8ae0" stroke="#2a0540" stroke-width="3"></circle><circle cx="640" cy="92" r="2.6" fill="#2a0540"></circle><circle cx="640" cy="172" r="5.5" fill="#f0d9ff" stroke="#2a0540" stroke-width="2.6"></circle><circle cx="862" cy="172" r="5.5" fill="#f0d9ff" stroke="#2a0540" stroke-width="2.6"></circle><circle cx="862" cy="80" r="5.5" fill="#f0d9ff" stroke="#2a0540" stroke-width="2.6"></circle><circle cx="1082" cy="80" r="20" fill="url(#glow)"></circle><circle cx="1082" cy="80" r="9" fill="#ff8ae0" stroke="#2a0540" stroke-width="3"></circle><circle cx="1082" cy="80" r="2.6" fill="#2a0540"></circle><circle cx="1082" cy="182" r="5.5" fill="#f0d9ff" stroke="#2a0540" stroke-width="2.6"></circle><circle cx="1284" cy="182" r="5.5" fill="#f0d9ff" stroke="#2a0540" stroke-width="2.6"></circle><circle cx="1284" cy="112" r="5.5" fill="#f0d9ff" stroke="#2a0540" stroke-width="2.6"></circle><circle cx="1384" cy="112" r="24" fill="url(#glow)"></circle><circle cx="1384" cy="112" r="16" fill="none" stroke="#ff8ae0" stroke-width="1.8" opacity="0.7"></circle><circle cx="1384" cy="112" r="10.5" fill="none" stroke="#ff8ae0" stroke-width="2.2"></circle><circle cx="1384" cy="112" r="5" fill="#ff8ae0"></circle></g>
</svg>