<svg xmlns="http://www.w3.org/2000/svg" width="780" height="520" viewBox="0 0 780 520" preserveAspectRatio="xMidYMid slice" role="img" aria-label="Abstract top-down navigation maze representing decision-making">
<defs>
<linearGradient id="bg" x1="0" y1="0" x2="1" y2="1"><stop offset="0" stop-color="#3a0a55"></stop><stop offset="1" stop-color="#1d0432"></stop></linearGradient>
<linearGradient id="route" x1="0" y1="0" x2="1" y2="1"><stop offset="0" stop-color="#e9c4ff"></stop><stop offset="1" stop-color="#ffffff"></stop></linearGradient>
<radialGradient id="glow" cx="0.5" cy="0.5" r="0.5"><stop offset="0" stop-color="#ff8ae0" stop-opacity="0.32"></stop><stop offset="1" stop-color="#ff8ae0" stop-opacity="0"></stop></radialGradient>
</defs>
<rect width="780" height="520" fill="url(#bg)"></rect>
<g><circle cx="44" cy="40" r="1.3" fill="#b48fd6" opacity="0.160"></circle><circle cx="44" cy="86" r="1.3" fill="#b48fd6" opacity="0.160"></circle><circle cx="44" cy="132" r="1.3" fill="#b48fd6" opacity="0.160"></circle><circle cx="44" cy="178" r="1.3" fill="#b48fd6" opacity="0.160"></circle><circle cx="44" cy="224" r="1.3" fill="#b48fd6" opacity="0.160"></circle><circle cx="44" cy="270" r="1.3" fill="#b48fd6" opacity="0.160"></circle><circle cx="44" cy="316" r="1.3" fill="#b48fd6" opacity="0.160"></circle><circle cx="44" cy="362" r="1.3" fill="#b48fd6" opacity="0.160"></circle><circle cx="44" cy="408" r="1.3" fill="#b48fd6" opacity="0.160"></circle><circle cx="44" cy="454" r="1.3" fill="#b48fd6" opacity="0.160"></circle><circle cx="44" cy="500" r="1.3" fill="#b48fd6" opacity="0.160"></circle><circle cx="90" cy="40" r="1.3" fill="#b48fd6" opacity="0.160"></circle><circle cx="90" cy="86" r="1.3" fill="#b48fd6" opacity="0.160"></circle><circle cx="90" cy="132" r="1.3" fill="#b48fd6" opacity="0.160"></circle><circle cx="90" cy="178" r="1.3" fill="#b48fd6" opacity="0.160"></circle><circle cx="90" cy="224" r="1.3" fill="#b48fd6" opacity="0.160"></circle><circle cx="90" cy="270" r="1.3" fill="#b48fd6" opacity="0.160"></circle><circle cx="90" cy="316" r="1.3" fill="#b48fd6" opacity="0.160"></circle><circle cx="90" cy="362" r="1.3" fill="#b48fd6" opacity="0.160"></circle><circle cx="90" cy="408" r="1.3" fill="#b48fd6" opacity="0.160"></circle><circle cx="90" cy="454" r="1.3" fill="#b48fd6" opacity="0.160"></circle><circle cx="90" cy="500" r="1.3" fill="#b48fd6" opacity="0.160"></circle><circle cx="136" cy="40" r="1.3" fill="#b48fd6" opacity="0.160"></circle><circle cx="136" cy="86" r="1.3" fill="#b48fd6" opacity="0.160"></circle><circle cx="136" cy="132" r="1.3" fill="#b48fd6" opacity="0.160"></circle><circle cx="136" cy="178" r="1.3" fill="#b48fd6" opacity="0.160"></circle><circle cx="136" cy="224" r="1.3" fill="#b48fd6" opacity="0.160"></circle><circle cx="136" cy="270" r="1.3" fill="#b48fd6" opacity="0.160"></circle><circle cx="136" cy="316" r="1.3" fill="#b48fd6" opacity="0.160"></circle><circle cx="136" cy="362" r="1.3" fill="#b48fd6" opacity="0.160"></circle><circle cx="136" cy="408" r="1.3" fill="#b48fd6" opacity="0.160"></circle><circle cx="136" cy="454" r="1.3" fill="#b48fd6" opacity="0.160"></circle><circle cx="136" cy="500" r="1.3" fill="#b48fd6" opacity="0.160"></circle><circle cx="182" cy="40" r="1.3" fill="#b48fd6" opacity="0.160"></circle><circle cx="182" cy="86" r="1.3" fill="#b48fd6" opacity="0.160"></circle><circle cx="182" cy="132" r="1.3" fill="#b48fd6" opacity="0.160"></circle><circle cx="182" cy="178" r="1.3" fill="#b48fd6" opacity="0.160"></circle><circle cx="182" cy="224" r="1.3" fill="#b48fd6" opacity="0.160"></circle><circle cx="182" cy="270" r="1.3" fill="#b48fd6" opacity="0.160"></circle><circle cx="182" cy="316" r="1.3" fill="#b48fd6" opacity="0.160"></circle><circle cx="182" cy="362" r="1.3" fill="#b48fd6" opacity="0.160"></circle><circle cx="182" cy="408" r="1.3" fill="#b48fd6" opacity="0.160"></circle><circle cx="182" cy="454" r="1.3" fill="#b48fd6" opacity="0.160"></circle><circle cx="182" cy="500" r="1.3" fill="#b48fd6" opacity="0.160"></circle><circle cx="228" cy="40" r="1.3" fill="#b48fd6" opacity="0.160"></circle><circle cx="228" cy="86" r="1.3" fill="#b48fd6" opacity="0.160"></circle><circle cx="228" cy="132" r="1.3" fill="#b48fd6" opacity="0.160"></circle><circle cx="228" cy="178" r="1.3" fill="#b48fd6" opacity="0.160"></circle><circle cx="228" cy="224" r="1.3" fill="#b48fd6" opacity="0.160"></circle><circle cx="228" cy="270" r="1.3" fill="#b48fd6" opacity="0.160"></circle><circle cx="228" cy="316" r="1.3" fill="#b48fd6" opacity="0.160"></circle><circle cx="228" cy="362" r="1.3" fill="#b48fd6" opacity="0.160"></circle><circle cx="228" cy="408" r="1.3" fill="#b48fd6" opacity="0.160"></circle><circle cx="228" cy="454" r="1.3" fill="#b48fd6" opacity="0.160"></circle><circle cx="228" cy="500" r="1.3" fill="#b48fd6" opacity="0.160"></circle><circle cx="274" cy="40" r="1.3" fill="#b48fd6" opacity="0.160"></circle><circle cx="274" cy="86" r="1.3" fill="#b48fd6" opacity="0.160"></circle><circle cx="274" cy="132" r="1.3" fill="#b48fd6" opacity="0.160"></circle><circle cx="274" cy="178" r="1.3" fill="#b48fd6" opacity="0.160"></circle><circle cx="274" cy="224" r="1.3" fill="#b48fd6" opacity="0.160"></circle><circle cx="274" cy="270" r="1.3" fill="#b48fd6" opacity="0.160"></circle><circle cx="274" cy="316" r="1.3" fill="#b48fd6" opacity="0.160"></circle><circle cx="274" cy="362" r="1.3" fill="#b48fd6" opacity="0.160"></circle><circle cx="274" cy="408" r="1.3" fill="#b48fd6" opacity="0.160"></circle><circle cx="274" cy="454" r="1.3" fill="#b48fd6" opacity="0.160"></circle><circle cx="274" cy="500" r="1.3" fill="#b48fd6" opacity="0.160"></circle><circle cx="320" cy="40" r="1.3" fill="#b48fd6" opacity="0.160"></circle><circle cx="320" cy="86" r="1.3" fill="#b48fd6" opacity="0.160"></circle><circle cx="320" cy="132" r="1.3" fill="#b48fd6" opacity="0.160"></circle><circle cx="320" cy="178" r="1.3" fill="#b48fd6" opacity="0.160"></circle><circle cx="320" cy="224" r="1.3" fill="#b48fd6" opacity="0.160"></circle><circle cx="320" cy="270" r="1.3" fill="#b48fd6" opacity="0.160"></circle><circle cx="320" cy="316" r="1.3" fill="#b48fd6" opacity="0.160"></circle><circle cx="320" cy="362" r="1.3" fill="#b48fd6" opacity="0.160"></circle><circle cx="320" cy="408" r="1.3" fill="#b48fd6" opacity="0.160"></circle><circle cx="320" cy="454" r="1.3" fill="#b48fd6" opacity="0.160"></circle><circle cx="320" cy="500" r="1.3" fill="#b48fd6" opacity="0.160"></circle><circle cx="366" cy="40" r="1.3" fill="#b48fd6" opacity="0.160"></circle><circle cx="366" cy="86" r="1.3" fill="#b48fd6" opacity="0.160"></circle><circle cx="366" cy="132" r="1.3" fill="#b48fd6" opacity="0.160"></circle><circle cx="366" cy="178" r="1.3" fill="#b48fd6" opacity="0.160"></circle><circle cx="366" cy="224" r="1.3" fill="#b48fd6" opacity="0.160"></circle><circle cx="366" cy="270" r="1.3" fill="#b48fd6" opacity="0.160"></circle><circle cx="366" cy="316" r="1.3" fill="#b48fd6" opacity="0.160"></circle><circle cx="366" cy="362" r="1.3" fill="#b48fd6" opacity="0.160"></circle><circle cx="366" cy="408" r="1.3" fill="#b48fd6" opacity="0.160"></circle><circle cx="366" cy="454" r="1.3" fill="#b48fd6" opacity="0.160"></circle><circle cx="366" cy="500" r="1.3" fill="#b48fd6" opacity="0.160"></circle><circle cx="412" cy="40" r="1.3" fill="#b48fd6" opacity="0.160"></circle><circle cx="412" cy="86" r="1.3" fill="#b48fd6" opacity="0.160"></circle><circle cx="412" cy="132" r="1.3" fill="#b48fd6" opacity="0.160"></circle><circle cx="412" cy="178" r="1.3" fill="#b48fd6" opacity="0.160"></circle><circle cx="412" cy="224" r="1.3" fill="#b48fd6" opacity="0.160"></circle><circle cx="412" cy="270" r="1.3" fill="#b48fd6" opacity="0.160"></circle><circle cx="412" cy="316" r="1.3" fill="#b48fd6" opacity="0.160"></circle><circle cx="412" cy="362" r="1.3" fill="#b48fd6" opacity="0.160"></circle><circle cx="412" cy="408" r="1.3" fill="#b48fd6" opacity="0.160"></circle><circle cx="412" cy="454" r="1.3" fill="#b48fd6" opacity="0.160"></circle><circle cx="412" cy="500" r="1.3" fill="#b48fd6" opacity="0.160"></circle><circle cx="458" cy="40" r="1.3" fill="#b48fd6" opacity="0.160"></circle><circle cx="458" cy="86" r="1.3" fill="#b48fd6" opacity="0.160"></circle><circle cx="458" cy="132" r="1.3" fill="#b48fd6" opacity="0.160"></circle><circle cx="458" cy="178" r="1.3" fill="#b48fd6" opacity="0.160"></circle><circle cx="458" cy="224" r="1.3" fill="#b48fd6" opacity="0.160"></circle><circle cx="458" cy="270" r="1.3" fill="#b48fd6" opacity="0.160"></circle><circle cx="458" cy="316" r="1.3" fill="#b48fd6" opacity="0.160"></circle><circle cx="458" cy="362" r="1.3" fill="#b48fd6" opacity="0.160"></circle><circle cx="458" cy="408" r="1.3" fill="#b48fd6" opacity="0.160"></circle><circle cx="458" cy="454" r="1.3" fill="#b48fd6" opacity="0.160"></circle><circle cx="458" cy="500" r="1.3" fill="#b48fd6" opacity="0.160"></circle><circle cx="504" cy="40" r="1.3" fill="#b48fd6" opacity="0.160"></circle><circle cx="504" cy="86" r="1.3" fill="#b48fd6" opacity="0.160"></circle><circle cx="504" cy="132" r="1.3" fill="#b48fd6" opacity="0.160"></circle><circle cx="504" cy="178" r="1.3" fill="#b48fd6" opacity="0.160"></circle><circle cx="504" cy="224" r="1.3" fill="#b48fd6" opacity="0.160"></circle><circle cx="504" cy="270" r="1.3" fill="#b48fd6" opacity="0.160"></circle><circle cx="504" cy="316" r="1.3" fill="#b48fd6" opacity="0.160"></circle><circle cx="504" cy="362" r="1.3" fill="#b48fd6" opacity="0.160"></circle><circle cx="504" cy="408" r="1.3" fill="#b48fd6" opacity="0.160"></circle><circle cx="504" cy="454" r="1.3" fill="#b48fd6" opacity="0.160"></circle><circle cx="504" cy="500" r="1.3" fill="#b48fd6" opacity="0.160"></circle><circle cx="550" cy="40" r="1.3" fill="#b48fd6" opacity="0.160"></circle><circle cx="550" cy="86" r="1.3" fill="#b48fd6" opacity="0.160"></circle><circle cx="550" cy="132" r="1.3" fill="#b48fd6" opacity="0.160"></circle><circle cx="550" cy="178" r="1.3" fill="#b48fd6" opacity="0.160"></circle><circle cx="550" cy="224" r="1.3" fill="#b48fd6" opacity="0.160"></circle><circle cx="550" cy="270" r="1.3" fill="#b48fd6" opacity="0.160"></circle><circle cx="550" cy="316" r="1.3" fill="#b48fd6" opacity="0.160"></circle><circle cx="550" cy="362" r="1.3" fill="#b48fd6" opacity="0.160"></circle><circle cx="550" cy="408" r="1.3" fill="#b48fd6" opacity="0.160"></circle><circle cx="550" cy="454" r="1.3" fill="#b48fd6" opacity="0.160"></circle><circle cx="550" cy="500" r="1.3" fill="#b48fd6" opacity="0.160"></circle><circle cx="596" cy="40" r="1.3" fill="#b48fd6" opacity="0.160"></circle><circle cx="596" cy="86" r="1.3" fill="#b48fd6" opacity="0.160"></circle><circle cx="596" cy="132" r="1.3" fill="#b48fd6" opacity="0.160"></circle><circle cx="596" cy="178" r="1.3" fill="#b48fd6" opacity="0.160"></circle><circle cx="596" cy="224" r="1.3" fill="#b48fd6" opacity="0.160"></circle><circle cx="596" cy="270" r="1.3" fill="#b48fd6" opacity="0.160"></circle><circle cx="596" cy="316" r="1.3" fill="#b48fd6" opacity="0.160"></circle><circle cx="596" cy="362" r="1.3" fill="#b48fd6" opacity="0.160"></circle><circle cx="596" cy="408" r="1.3" fill="#b48fd6" opacity="0.160"></circle><circle cx="596" cy="454" r="1.3" fill="#b48fd6" opacity="0.160"></circle><circle cx="596" cy="500" r="1.3" fill="#b48fd6" opacity="0.160"></circle><circle cx="642" cy="40" r="1.3" fill="#b48fd6" opacity="0.160"></circle><circle cx="642" cy="86" r="1.3" fill="#b48fd6" opacity="0.160"></circle><circle cx="642" cy="132" r="1.3" fill="#b48fd6" opacity="0.160"></circle><circle cx="642" cy="178" r="1.3" fill="#b48fd6" opacity="0.160"></circle><circle cx="642" cy="224" r="1.3" fill="#b48fd6" opacity="0.160"></circle><circle cx="642" cy="270" r="1.3" fill="#b48fd6" opacity="0.160"></circle><circle cx="642" cy="316" r="1.3" fill="#b48fd6" opacity="0.160"></circle><circle cx="642" cy="362" r="1.3" fill="#b48fd6" opacity="0.160"></circle><circle cx="642" cy="408" r="1.3" fill="#b48fd6" opacity="0.160"></circle><circle cx="642" cy="454" r="1.3" fill="#b48fd6" opacity="0.160"></circle><circle cx="642" cy="500" r="1.3" fill="#b48fd6" opacity="0.160"></circle><circle cx="688" cy="40" r="1.3" fill="#b48fd6" opacity="0.160"></circle><circle cx="688" cy="86" r="1.3" fill="#b48fd6" opacity="0.160"></circle><circle cx="688" cy="132" r="1.3" fill="#b48fd6" opacity="0.160"></circle><circle cx="688" cy="178" r="1.3" fill="#b48fd6" opacity="0.160"></circle><circle cx="688" cy="224" r="1.3" fill="#b48fd6" opacity="0.160"></circle><circle cx="688" cy="270" r="1.3" fill="#b48fd6" opacity="0.160"></circle><circle cx="688" cy="316" r="1.3" fill="#b48fd6" opacity="0.160"></circle><circle cx="688" cy="362" r="1.3" fill="#b48fd6" opacity="0.160"></circle><circle cx="688" cy="408" r="1.3" fill="#b48fd6" opacity="0.160"></circle><circle cx="688" cy="454" r="1.3" fill="#b48fd6" opacity="0.160"></circle><circle cx="688" cy="500" r="1.3" fill="#b48fd6" opacity="0.160"></circle><circle cx="734" cy="40" r="1.3" fill="#b48fd6" opacity="0.160"></circle><circle cx="734" cy="86" r="1.3" fill="#b48fd6" opacity="0.160"></circle><circle cx="734" cy="132" r="1.3" fill="#b48fd6" opacity="0.160"></circle><circle cx="734" cy="178" r="1.3" fill="#b48fd6" opacity="0.160"></circle><circle cx="734" cy="224" r="1.3" fill="#b48fd6" opacity="0.160"></circle><circle cx="734" cy="270" r="1.3" fill="#b48fd6" opacity="0.160"></circle><circle cx="734" cy="316" r="1.3" fill="#b48fd6" opacity="0.160"></circle><circle cx="734" cy="362" r="1.3" fill="#b48fd6" opacity="0.160"></circle><circle cx="734" cy="408" r="1.3" fill="#b48fd6" opacity="0.160"></circle><circle cx="734" cy="454" r="1.3" fill="#b48fd6" opacity="0.160"></circle><circle cx="734" cy="500" r="1.3" fill="#b48fd6" opacity="0.160"></circle></g>
<g><line x1="250" y1="138" x2="336" y2="142" stroke="#b48fd6" stroke-width="1.1" opacity="0.300"></line><line x1="336" y1="142" x2="440" y2="138" stroke="#b48fd6" stroke-width="1.1" opacity="0.300"></line><line x1="236" y1="252" x2="338" y2="248" stroke="#b48fd6" stroke-width="1.1" opacity="0.300"></line><line x1="470" y1="366" x2="566" y2="360" stroke="#b48fd6" stroke-width="1.1" opacity="0.300"></line><line x1="566" y1="360" x2="648" y2="366" stroke="#b48fd6" stroke-width="1.1" opacity="0.300"></line><line x1="60" y1="470" x2="156" y2="462" stroke="#b48fd6" stroke-width="1.1" opacity="0.300"></line><circle cx="250" cy="138" r="2.6" fill="#b48fd6" opacity="0.450"></circle><circle cx="336" cy="142" r="2.6" fill="#b48fd6" opacity="0.450"></circle><circle cx="440" cy="138" r="2.6" fill="#b48fd6" opacity="0.450"></circle><circle cx="236" cy="252" r="2.6" fill="#b48fd6" opacity="0.450"></circle><circle cx="338" cy="248" r="2.6" fill="#b48fd6" opacity="0.450"></circle><circle cx="300" cy="250" r="2.6" fill="#b48fd6" opacity="0.450"></circle><circle cx="470" cy="366" r="2.6" fill="#b48fd6" opacity="0.450"></circle><circle cx="566" cy="360" r="2.6" fill="#b48fd6" opacity="0.450"></circle><circle cx="648" cy="366" r="2.6" fill="#b48fd6" opacity="0.450"></circle><circle cx="60" cy="470" r="2.6" fill="#b48fd6" opacity="0.450"></circle><circle cx="156" cy="462" r="2.6" fill="#b48fd6" opacity="0.450"></circle></g>
<g><line x1="336" y1="250" x2="396" y2="250" stroke="#9a6fbf" stroke-width="1.8" stroke-dasharray="2 5" stroke-linecap="round" opacity="0.4"></line><circle cx="366" cy="250" r="2.4" fill="#9a6fbf" opacity="0.5"></circle><line x1="566" y1="196" x2="566" y2="150" stroke="#9a6fbf" stroke-width="1.8" stroke-dasharray="2 5" stroke-linecap="round" opacity="0.4"></line><circle cx="566" cy="173" r="2.4" fill="#9a6fbf" opacity="0.5"></circle></g>
<g><path d="M 700 84 L 700.0 48.0 Q 700 40 692.0 40.0 L 604 40" fill="none" stroke="#9a6fbf" stroke-width="3" stroke-linecap="round" stroke-linejoin="round" stroke-dasharray="1.5 8" opacity="0.5"></path><circle cx="604" cy="40" r="4" fill="#3a0a55" stroke="#9a6fbf" stroke-width="1.8" opacity="0.6"></circle><path d="M 420 84 L 420.0 132.0 Q 420 140 412.0 140.0 L 344 140" fill="none" stroke="#9a6fbf" stroke-width="3" stroke-linecap="round" stroke-linejoin="round" stroke-dasharray="1.5 8" opacity="0.5"></path><circle cx="344" cy="140" r="4" fill="#3a0a55" stroke="#9a6fbf" stroke-width="1.8" opacity="0.6"></circle><path d="M 700 196 L 612.0 196.0 Q 604 196 604.0 188.0 L 604 150" fill="none" stroke="#9a6fbf" stroke-width="3" stroke-linecap="round" stroke-linejoin="round" stroke-dasharray="1.5 8" opacity="0.5"></path><circle cx="604" cy="150" r="4" fill="#3a0a55" stroke="#9a6fbf" stroke-width="1.8" opacity="0.6"></circle><path d="M 96 196 L 52.0 196.0 Q 44 196 44.0 188.0 L 44 118" fill="none" stroke="#9a6fbf" stroke-width="3" stroke-linecap="round" stroke-linejoin="round" stroke-dasharray="1.5 8" opacity="0.5"></path><circle cx="44" cy="118" r="4" fill="#3a0a55" stroke="#9a6fbf" stroke-width="1.8" opacity="0.6"></circle><path d="M 96 312 L 96.0 364.0 Q 96 372 104.0 372.0 L 200 372" fill="none" stroke="#9a6fbf" stroke-width="3" stroke-linecap="round" stroke-linejoin="round" stroke-dasharray="1.5 8" opacity="0.5"></path><circle cx="200" cy="372" r="4" fill="#3a0a55" stroke="#9a6fbf" stroke-width="1.8" opacity="0.6"></circle><path d="M 420 312 L 420.0 264.0 Q 420 256 428.0 256.0 L 500 256" fill="none" stroke="#9a6fbf" stroke-width="3" stroke-linecap="round" stroke-linejoin="round" stroke-dasharray="1.5 8" opacity="0.5"></path><circle cx="500" cy="256" r="4" fill="#3a0a55" stroke="#9a6fbf" stroke-width="1.8" opacity="0.6"></circle><path d="M 700 312 L 732.0 312.0 Q 740 312 740.0 304.0 L 740 250" fill="none" stroke="#9a6fbf" stroke-width="3" stroke-linecap="round" stroke-linejoin="round" stroke-dasharray="1.5 8" opacity="0.5"></path><circle cx="740" cy="250" r="4" fill="#3a0a55" stroke="#9a6fbf" stroke-width="1.8" opacity="0.6"></circle><path d="M 700 424 L 700.0 470.0 Q 700 478 692.0 478.0 L 600 478" fill="none" stroke="#9a6fbf" stroke-width="3" stroke-linecap="round" stroke-linejoin="round" stroke-dasharray="1.5 8" opacity="0.5"></path><circle cx="600" cy="478" r="4" fill="#3a0a55" stroke="#9a6fbf" stroke-width="1.8" opacity="0.6"></circle><path d="M 330 424 L 330.0 470.0 Q 330 478 338.0 478.0 L 430 478" fill="none" stroke="#9a6fbf" stroke-width="3" stroke-linecap="round" stroke-linejoin="round" stroke-dasharray="1.5 8" opacity="0.5"></path><circle cx="430" cy="478" r="4" fill="#3a0a55" stroke="#9a6fbf" stroke-width="1.8" opacity="0.6"></circle></g>
<g><circle cx="700" cy="84" r="18" fill="none" stroke="#ff8ae0" stroke-width="1.5" stroke-dasharray="3 5" opacity="0.55"></circle><circle cx="96" cy="196" r="18" fill="none" stroke="#ff8ae0" stroke-width="1.5" stroke-dasharray="3 5" opacity="0.55"></circle><circle cx="700" cy="312" r="18" fill="none" stroke="#ff8ae0" stroke-width="1.5" stroke-dasharray="3 5" opacity="0.55"></circle></g>
<path d="M 60 84 L 692.0 84.0 Q 700 84 700.0 92.0 L 700.0 188.0 Q 700 196 692.0 196.0 L 104.0 196.0 Q 96 196 96.0 204.0 L 96.0 304.0 Q 96 312 104.0 312.0 L 692.0 312.0 Q 700 312 700.0 320.0 L 700.0 416.0 Q 700 424 692.0 424.0 L 330 424" fill="none" stroke="#e9c4ff" stroke-width="18" stroke-linecap="round" stroke-linejoin="round" opacity="0.12"></path>
<path d="M 60 84 L 692.0 84.0 Q 700 84 700.0 92.0 L 700.0 188.0 Q 700 196 692.0 196.0 L 104.0 196.0 Q 96 196 96.0 204.0 L 96.0 304.0 Q 96 312 104.0 312.0 L 692.0 312.0 Q 700 312 700.0 320.0 L 700.0 416.0 Q 700 424 692.0 424.0 L 330 424" fill="none" stroke="url(#route)" stroke-width="7" stroke-linecap="round" stroke-linejoin="round"></path>
<g><path d="M 386.0 84.0 L 376.7 88.8 L 376.7 79.2 Z" fill="#2a0540"></path><path d="M 392.0 196.0 L 401.3 191.2 L 401.3 200.8 Z" fill="#2a0540"></path><path d="M 404.0 312.0 L 394.7 316.8 L 394.7 307.2 Z" fill="#2a0540"></path><path d="M 509.0 424.0 L 518.3 419.2 L 518.3 428.8 Z" fill="#2a0540"></path></g>
<g><circle cx="60" cy="84" r="12" fill="#3a0a55" stroke="#e9c4ff" stroke-width="3.2"></circle><circle cx="60" cy="84" r="4.6" fill="#e9c4ff"></circle><circle cx="700" cy="84" r="22" fill="url(#glow)"></circle><circle cx="700" cy="84" r="10" fill="#ff8ae0" stroke="#2a0540" stroke-width="3.2"></circle><circle cx="700" cy="84" r="2.8" fill="#2a0540"></circle><circle cx="700" cy="196" r="6" fill="#f0d9ff" stroke="#2a0540" stroke-width="2.8"></circle><circle cx="96" cy="196" r="22" fill="url(#glow)"></circle><circle cx="96" cy="196" r="10" fill="#ff8ae0" stroke="#2a0540" stroke-width="3.2"></circle><circle cx="96" cy="196" r="2.8" fill="#2a0540"></circle><circle cx="96" cy="312" r="6" fill="#f0d9ff" stroke="#2a0540" stroke-width="2.8"></circle><circle cx="700" cy="312" r="22" fill="url(#glow)"></circle><circle cx="700" cy="312" r="10" fill="#ff8ae0" stroke="#2a0540" stroke-width="3.2"></circle><circle cx="700" cy="312" r="2.8" fill="#2a0540"></circle><circle cx="700" cy="424" r="6" fill="#f0d9ff" stroke="#2a0540" stroke-width="2.8"></circle><circle cx="330" cy="424" r="26" fill="url(#glow)"></circle><circle cx="330" cy="424" r="17" fill="none" stroke="#ff8ae0" stroke-width="1.9" opacity="0.7"></circle><circle cx="330" cy="424" r="11.5" fill="none" stroke="#ff8ae0" stroke-width="2.4"></circle><circle cx="330" cy="424" r="5.4" fill="#ff8ae0"></circle></g>
</svg>